<?xml version="1.0" standalone="no"?>
<!DOCTYPE svg PUBLIC "-//W3C//DTD SVG 20010904//EN"
 "http://www.w3.org/TR/2001/REC-SVG-20010904/DTD/svg10.dtd">
<svg version="1.0" xmlns="http://www.w3.org/2000/svg"
 width="700.000000pt" height="700.000000pt" viewBox="0 0 700.000000 700.000000"
 preserveAspectRatio="xMidYMid meet">
<metadata>
Created by potrace 1.14, written by Peter Selinger 2001-2017
</metadata>
<g transform="translate(0.000000,700.000000) scale(0.100000,-0.100000)"
fill="#000000" stroke="none">
<path d="M560 6980 c-266 -66 -465 -259 -538 -523 -16 -58 -17 -256 -17 -2957
0 -2782 1 -2898 18 -2960 42 -148 126 -278 242 -373 68 -57 182 -117 256 -137
24 -7 53 -15 64 -18 11 -4 550 -8 1198 -9 938 -2 1177 0 1171 10 -6 9 -5 9 8
-1 21 -17 1136 -16 1157 1 11 9 13 9 8 0 -10 -17 1791 -17 1812 0 12 9 13 9 7
-1 -6 -10 36 -12 216 -8 123 2 237 7 253 10 64 14 161 49 171 62 6 8 14 11 17
8 8 -8 58 27 51 37 -3 5 1 7 8 4 23 -9 130 85 193 169 41 56 89 146 78 146 -5
0 -2 4 5 9 8 5 15 20 15 35 1 14 5 26 9 26 10 0 31 108 23 120 -3 5 -2 10 3
10 6 0 10 145 10 370 1 288 -2 369 -11 363 -9 -5 -9 -3 -1 8 17 21 18 243 2
233 -10 -6 -10 -5 -2 7 17 21 18 217 2 237 -8 10 -9 13 -1 9 8 -5 11 538 12
2240 0 2080 -1 2253 -17 2321 -9 41 -19 71 -22 69 -3 -3 -6 5 -6 18 -2 23 -60
146 -74 155 -4 3 -9 10 -11 16 -2 7 -24 35 -49 64 -84 98 -208 178 -348 223
l-67 22 -2885 2 c-2785 2 -2888 1 -2960 -17z m6294 -2098 c3 -5 -1 -9 -9 -9
-8 0 -12 4 -9 9 3 4 7 8 9 8 2 0 6 -4 9 -8z m-404 -402 c0 -5 -5 -10 -11 -10
-5 0 -7 5 -4 10 3 6 8 10 11 10 2 0 4 -4 4 -10z m-165 -240 c3 -5 1 -10 -4
-10 -6 0 -11 5 -11 10 0 6 2 10 4 10 3 0 8 -4 11 -10z m-800 -1280 c3 -5 1
-10 -4 -10 -6 0 -11 5 -11 10 0 6 2 10 4 10 3 0 8 -4 11 -10z m362 -155 c0 -8
-4 -12 -9 -9 -5 3 -6 10 -3 15 9 13 12 11 12 -6z m1048 -745 c-3 -5 -12 -10
-18 -10 -7 0 -6 4 3 10 19 12 23 12 15 0z m-171 -46 c3 -8 2 -12 -4 -9 -6 3
-10 10 -10 16 0 14 7 11 14 -7z m-1599 -62 c-3 -3 -11 0 -18 7 -9 10 -8 11 6
5 10 -3 15 -9 12 -12z m1730 -311 c-9 -8 -36 -10 -30 -2 2 4 11 8 20 8 8 0 13
-3 10 -6z m-234 -94 c-10 -9 -11 -8 -5 6 3 10 9 15 12 12 3 -3 0 -11 -7 -18z
m-2691 -223 c0 -8 -19 -13 -24 -6 -3 5 1 9 9 9 8 0 15 -2 15 -3z m2313 -259
c-3 -9 -8 -14 -10 -11 -3 3 -2 9 2 15 9 16 15 13 8 -4z m337 -141 c0 -8 -19
-13 -24 -6 -3 5 1 9 9 9 8 0 15 -2 15 -3z m-570 -108 c0 -2 -8 -10 -17 -17
-16 -13 -17 -12 -4 4 13 16 21 21 21 13z m-2403 -141 c0 -8 -4 -12 -9 -9 -5 3
-6 10 -3 15 9 13 12 11 12 -6z m2316 -10 c-3 -9 -8 -14 -10 -11 -3 3 -2 9 2
15 9 16 15 13 8 -4z m-1833 -145 c0 -5 -5 -10 -11 -10 -5 0 -7 5 -4 10 3 6 8
10 11 10 2 0 4 -4 4 -10z m2211 -87 c13 -16 12 -17 -3 -4 -17 13 -22 21 -14
21 2 0 10 -8 17 -17z m499 13 c0 -2 -8 -10 -17 -17 -16 -13 -17 -12 -4 4 13
16 21 21 21 13z m-865 -246 c3 -6 -1 -7 -9 -4 -18 7 -21 14 -7 14 6 0 13 -4
16 -10z m-369 -80 c0 -12 -4 -16 -9 -11 -5 5 -6 14 -3 20 10 15 12 14 12 -9z
m585 3 c13 -16 12 -17 -3 -4 -17 13 -22 21 -14 21 2 0 10 -8 17 -17z m-531
-59 c0 -8 -19 -13 -24 -6 -3 5 1 9 9 9 8 0 15 -2 15 -3z"/>
</g>
</svg>
